<svg version="1.1" viewBox="0.0 0.0 600.0 371.0" fill="none" stroke="none" stroke-linecap="square" stroke-miterlimit="10" width="600" height="371" xmlns:xlink="http://www.w3.org/1999/xlink" xmlns="http://www.w3.org/2000/svg"><path fill="#000000" d="M0 0L600.0 0L600.0 371.0L0 371.0L0 0Z" fill-rule="nonzero"/><path fill="#34a853" d="M285.99982 55.576897C290.6536 55.13699 295.3255 54.916668 300.0 54.916668L300.0 203.68333Z" fill-rule="nonzero"/><path fill="#fbbc04" d="M219.49919 78.57881C239.50772 65.70395 262.3125 57.81601 285.99982 55.576897L300.0 203.68333Z" fill-rule="nonzero"/><path fill="#ea4335" d="M184.77975 109.57798C194.65477 97.487274 206.37128 87.026215 219.49919 78.57881L300.0 203.68333Z" fill-rule="nonzero"/><path fill="#4285f4" d="M300.0 54.916668C369.57004 54.916668 429.84985 103.13225 445.13272 171.00287C460.4156 238.8735 426.6198 308.2727 363.76434 338.09177C300.90887 367.91086 225.78078 350.18594 182.88225 295.41638C139.98372 240.64684 140.77184 163.46017 184.77975 109.57798L300.0 203.68333Z" fill-rule="nonzero"/><path fill="#ffffff" d="M19.425 65.916664L19.425 57.322914L20.565624 57.322914L20.565624 64.90104L24.8 64.90104L24.8 65.916664L19.425 65.916664ZM26.346874 58.541664L26.346874 57.322914L27.409374 57.322914L27.409374 58.541664L26.346874 58.541664ZM26.346874 65.916664L26.346874 59.697914L27.409374 59.697914L27.409374 65.916664L26.346874 65.916664ZM33.315624 68.30729L33.315624 65.260414Q33.065624 65.604164 32.6125 65.83854Q32.175 66.05729 31.675 66.05729Q30.565624 66.05729 29.76875 65.18229Q28.971874 64.291664 28.971874 62.74479Q28.971874 61.80729 29.3 61.072914Q29.628124 60.322914 30.2375 59.947914Q30.8625 59.55729 31.596874 59.55729Q32.753124 59.55729 33.409374 60.52604L33.409374 59.697914L34.3625 59.697914L34.3625 68.30729L33.315624 68.30729ZM30.05 62.791664Q30.05 63.99479 30.55 64.58854Q31.065624 65.18229 31.76875 65.18229Q32.440624 65.18229 32.925 64.61979Q33.409374 64.041664 33.409374 62.885414Q33.409374 61.635414 32.89375 61.010414Q32.39375 60.385414 31.690624 60.385414Q31.01875 60.385414 30.534374 60.979164Q30.05 61.55729 30.05 62.791664ZM40.425 65.916664L40.425 64.99479Q39.690624 66.05729 38.440624 66.05729Q37.89375 66.05729 37.409374 65.854164Q36.940624 65.635414 36.70625 65.322914Q36.471874 64.99479 36.378124 64.52604Q36.315624 64.229164 36.315624 63.541664L36.315624 59.697914L37.378124 59.697914L37.378124 63.15104Q37.378124 63.96354 37.440624 64.260414Q37.534374 64.666664 37.846874 64.916664Q38.175 65.15104 38.659374 65.15104Q39.128124 65.15104 39.534374 64.916664Q39.95625 64.666664 40.128124 64.24479Q40.315624 63.822914 40.315624 63.02604L40.315624 59.697914L41.3625 59.697914L41.3625 65.916664L40.425 65.916664ZM43.346874 58.541664L43.346874 57.322914L44.409374 57.322914L44.409374 58.541664L43.346874 58.541664ZM43.346874 65.916664L43.346874 59.697914L44.409374 59.697914L44.409374 65.916664L43.346874 65.916664ZM50.378124 65.916664L50.378124 65.135414Q49.784374 66.05729 48.64375 66.05729Q47.89375 66.05729 47.26875 65.65104Q46.64375 65.229164 46.3 64.49479Q45.95625 63.760414 45.95625 62.80729Q45.95625 61.885414 46.26875 61.11979Q46.58125 60.354164 47.20625 59.96354Q47.83125 59.55729 48.596874 59.55729Q49.159374 59.55729 49.596874 59.791664Q50.034374 60.02604 50.315624 60.40104L50.315624 57.322914L51.3625 57.322914L51.3625 65.916664L50.378124 65.916664ZM47.05 62.80729Q47.05 64.010414 47.55 64.604164Q48.05 65.18229 48.7375 65.18229Q49.425 65.18229 49.909374 64.61979Q50.39375 64.05729 50.39375 62.90104Q50.39375 61.61979 49.89375 61.02604Q49.409374 60.43229 48.690624 60.43229Q47.9875 60.43229 47.51875 61.010414Q47.05 61.572914 47.05 62.80729ZM53.346874 58.541664L53.346874 57.322914L54.409374 57.322914L54.409374 58.541664L53.346874 58.541664ZM53.346874 65.916664L53.346874 59.697914L54.409374 59.697914L54.409374 65.916664L53.346874 65.916664ZM58.64375 64.979164L58.8 65.90104Q58.346874 65.99479 58.003124 65.99479Q57.425 65.99479 57.1125 65.822914Q56.8 65.635414 56.659374 65.33854Q56.534374 65.041664 56.534374 64.08854L56.534374 60.510414L55.76875 60.510414L55.76875 59.697914L56.534374 59.697914L56.534374 58.15104L57.58125 57.52604L57.58125 59.697914L58.64375 59.697914L58.64375 60.510414L57.58125 60.510414L57.58125 64.15104Q57.58125 64.604164 57.628124 64.729164Q57.690624 64.854164 57.815624 64.93229Q57.940624 65.010414 58.175 65.010414Q58.3625 65.010414 58.64375 64.979164ZM59.3 68.30729L59.175 67.322914Q59.51875 67.416664 59.784374 67.416664Q60.128124 67.416664 60.33125 67.291664Q60.55 67.18229 60.690624 66.979164Q60.784374 66.80729 61.01875 66.18229Q61.034374 66.104164 61.1125 65.93229L58.7375 59.697914L59.878124 59.697914L61.175 63.291664Q61.425 63.979164 61.628124 64.74479Q61.815624 64.010414 62.065624 63.322914L63.39375 59.697914L64.44063 59.697914L62.08125 66.02604Q61.690624 67.041664 61.4875 67.43229Q61.20625 67.96354 60.83125 68.197914Q60.471874 68.447914 59.971874 68.447914Q59.675 68.447914 59.3 68.30729ZM67.34688 68.30729L67.34688 59.697914L68.3 59.697914L68.3 60.49479Q68.64375 60.02604 69.06563 59.791664Q69.50313 59.55729 70.1125 59.55729Q70.90938 59.55729 71.51875 59.96354Q72.12813 60.36979 72.425 61.11979Q72.7375 61.86979 72.7375 62.760414Q72.7375 63.71354 72.39375 64.479164Q72.06563 65.24479 71.40938 65.65104Q70.75313 66.05729 70.03438 66.05729Q69.50313 66.05729 69.08125 65.83854Q68.65938 65.604164 68.39375 65.27604L68.39375 68.30729L67.34688 68.30729ZM68.3 62.83854Q68.3 64.041664 68.78438 64.61979Q69.26875 65.18229 69.95625 65.18229Q70.65938 65.18229 71.15938 64.58854Q71.65938 63.99479 71.65938 62.74479Q71.65938 61.55729 71.175 60.979164Q70.69063 60.385414 70.00313 60.385414Q69.33125 60.385414 68.81563 61.010414Q68.3 61.635414 68.3 62.83854ZM74.33125 65.916664L74.33125 59.697914L75.28438 59.697914L75.28438 60.635414Q75.64375 59.979164 75.94063 59.77604Q76.25313 59.55729 76.62813 59.55729Q77.15938 59.55729 77.70625 59.885414L77.34688 60.86979Q76.95625 60.635414 76.58125 60.635414Q76.22188 60.635414 75.94063 60.854164Q75.675 61.05729 75.56563 61.43229Q75.37813 61.99479 75.37813 62.65104L75.37813 65.916664L74.33125 65.916664ZM77.95625 62.80729Q77.95625 61.072914 78.90938 60.24479Q79.70625 59.55729 80.8625 59.55729Q82.14375 59.55729 82.95625 60.40104Q83.78438 61.229164 83.78438 62.71354Q83.78438 63.916664 83.425 64.604164Q83.06563 65.291664 82.3625 65.68229Q81.675 66.05729 80.8625 66.05729Q79.56563 66.05729 78.75313 65.229164Q77.95625 64.385414 77.95625 62.80729ZM79.03438 62.80729Q79.03438 63.99479 79.55 64.58854Q80.08125 65.18229 80.8625 65.18229Q81.65938 65.18229 82.175 64.58854Q82.69063 63.99479 82.69063 62.77604Q82.69063 61.61979 82.15938 61.02604Q81.64375 60.43229 80.8625 60.43229Q80.08125 60.43229 79.55 61.02604Q79.03438 61.604164 79.03438 62.80729ZM87.06563 65.916664L84.70625 59.697914L85.81563 59.697914L87.15938 63.416664Q87.3625 64.02604 87.55 64.666664Q87.69063 64.18229 87.94063 63.49479L89.33125 59.697914L90.40938 59.697914L88.05 65.916664L87.06563 65.916664ZM90.34688 58.541664L90.34688 57.322914L91.40938 57.322914L91.40938 58.541664L90.34688 58.541664ZM90.34688 65.916664L90.34688 59.697914L91.40938 59.697914L91.40938 65.916664L90.34688 65.916664ZM92.925 64.05729L93.95625 63.90104Q94.05 64.52604 94.44063 64.854164Q94.84688 65.18229 95.58125 65.18229Q96.3 65.18229 96.64375 64.90104Q97.00313 64.604164 97.00313 64.197914Q97.00313 63.83854 96.69063 63.635414Q96.47188 63.49479 95.6125 63.27604Q94.45625 62.979164 94.00313 62.77604Q93.56563 62.55729 93.33125 62.18229Q93.09688 61.80729 93.09688 61.33854Q93.09688 60.93229 93.28438 60.572914Q93.47188 60.21354 93.8 59.979164Q94.05 59.80729 94.47188 59.68229Q94.89375 59.55729 95.39375 59.55729Q96.1125 59.55729 96.65938 59.77604Q97.22188 59.979164 97.4875 60.33854Q97.75313 60.697914 97.84688 61.291664L96.81563 61.43229Q96.75313 60.96354 96.40938 60.697914Q96.08125 60.416664 95.45625 60.416664Q94.7375 60.416664 94.425 60.666664Q94.1125 60.90104 94.1125 61.229164Q94.1125 61.43229 94.2375 61.58854Q94.37813 61.760414 94.64375 61.86979Q94.8 61.93229 95.58125 62.135414Q96.70625 62.447914 97.14375 62.635414Q97.58125 62.822914 97.83125 63.18229Q98.08125 63.541664 98.08125 64.08854Q98.08125 64.61979 97.76875 65.08854Q97.47188 65.541664 96.89375 65.80729Q96.31563 66.05729 95.58125 66.05729Q94.3625 66.05729 93.72188 65.55729Q93.09688 65.041664 92.925 64.05729ZM100.34688 58.541664L100.34688 57.322914L101.40938 57.322914L101.40938 58.541664L100.34688 58.541664ZM100.34688 65.916664L100.34688 59.697914L101.40938 59.697914L101.40938 65.916664L100.34688 65.916664ZM102.95625 62.80729Q102.95625 61.072914 103.90938 60.24479Q104.70625 59.55729 105.8625 59.55729Q107.14375 59.55729 107.95625 60.40104Q108.78438 61.229164 108.78438 62.71354Q108.78438 63.916664 108.425 64.604164Q108.06563 65.291664 107.3625 65.68229Q106.675 66.05729 105.8625 66.05729Q104.56563 66.05729 103.75313 65.229164Q102.95625 64.385414 102.95625 62.80729ZM104.03438 62.80729Q104.03438 63.99479 104.55 64.58854Q105.08125 65.18229 105.8625 65.18229Q106.65938 65.18229 107.175 64.58854Q107.69063 63.99479 107.69063 62.77604Q107.69063 61.61979 107.15938 61.02604Q106.64375 60.43229 105.8625 60.43229Q105.08125 60.43229 104.55 61.02604Q104.03438 61.604164 104.03438 62.80729ZM110.34688 65.916664L110.34688 59.697914L111.28438 59.697914L111.28438 60.572914Q111.97188 59.55729 113.26875 59.55729Q113.83125 59.55729 114.3 59.760414Q114.78438 59.96354 115.01875 60.291664Q115.25313 60.61979 115.34688 61.05729Q115.39375 61.354164 115.39375 62.08854L115.39375 65.916664L114.34688 65.916664L114.34688 62.135414Q114.34688 61.479164 114.22188 61.166664Q114.09688 60.854164 113.78438 60.666664Q113.47188 60.46354 113.05 60.46354Q112.37813 60.46354 111.87813 60.90104Q111.39375 61.322914 111.39375 62.510414L111.39375 65.916664L110.34688 65.916664Z" fill-rule="nonzero"/><path fill="#616161" d="M23.01875 82.916664L21.971874 82.916664L21.971874 76.197914Q21.58125 76.55729 20.95625 76.93229Q20.346874 77.291664 19.8625 77.46354L19.8625 76.447914Q20.7375 76.02604 21.39375 75.447914Q22.065624 74.854164 22.346874 74.291664L23.01875 74.291664L23.01875 82.916664ZM26.6125 82.916664L26.6125 81.71354L27.815624 81.71354L27.815624 82.916664Q27.815624 83.572914 27.58125 83.979164Q27.346874 84.40104 26.846874 84.61979L26.55 84.166664Q26.878124 84.02604 27.034374 83.729164Q27.190624 83.447914 27.221874 82.916664L26.6125 82.916664ZM29.05 80.666664L30.159374 80.572914Q30.284374 81.385414 30.721874 81.791664Q31.175 82.197914 31.815624 82.197914Q32.565624 82.197914 33.096874 81.61979Q33.628124 81.041664 33.628124 80.104164Q33.628124 79.197914 33.1125 78.68229Q32.6125 78.15104 31.784374 78.15104Q31.284374 78.15104 30.8625 78.385414Q30.45625 78.61979 30.221874 78.979164L29.2375 78.854164L30.065624 74.447914L34.346874 74.447914L34.346874 75.447914L30.909374 75.447914L30.45625 77.760414Q31.221874 77.21354 32.065624 77.21354Q33.190624 77.21354 33.95625 77.99479Q34.7375 78.77604 34.7375 80.010414Q34.7375 81.166664 34.065624 82.02604Q33.2375 83.05729 31.815624 83.05729Q30.64375 83.05729 29.89375 82.40104Q29.159374 81.74479 29.05 80.666664ZM36.253124 76.385414Q36.253124 75.46354 36.70625 74.822914Q37.175 74.18229 38.05 74.18229Q38.8625 74.18229 39.39375 74.760414Q39.925 75.33854 39.925 76.447914Q39.925 77.541664 39.378124 78.135414Q38.846874 78.71354 38.065624 78.71354Q37.284374 78.71354 36.76875 78.135414Q36.253124 77.55729 36.253124 76.385414ZM38.08125 74.90104Q37.690624 74.90104 37.425 75.24479Q37.175 75.58854 37.175 76.49479Q37.175 77.322914 37.425 77.666664Q37.690624 77.99479 38.08125 77.99479Q38.4875 77.99479 38.7375 77.65104Q39.003124 77.30729 39.003124 76.416664Q39.003124 75.572914 38.7375 75.24479Q38.471874 74.90104 38.08125 74.90104ZM38.08125 83.229164L42.784374 74.18229L43.64375 74.18229L38.95625 83.229164L38.08125 83.229164ZM41.8 80.90104Q41.8 79.979164 42.253124 79.33854Q42.721874 78.697914 43.6125 78.697914Q44.425 78.697914 44.95625 79.27604Q45.4875 79.83854 45.4875 80.96354Q45.4875 82.05729 44.940624 82.65104Q44.409374 83.229164 43.6125 83.229164Q42.846874 83.229164 42.315624 82.65104Q41.8 82.072914 41.8 80.90104ZM43.64375 79.416664Q43.2375 79.416664 42.971874 79.760414Q42.721874 80.104164 42.721874 81.010414Q42.721874 81.822914 42.9875 82.166664Q43.253124 82.510414 43.64375 82.510414Q44.034374 82.510414 44.3 82.166664Q44.565624 81.822914 44.565624 80.916664Q44.565624 80.08854 44.3 79.760414Q44.034374 79.416664 43.64375 79.416664Z" fill-rule="nonzero"/><path stroke="#8a8a8a" stroke-width="1.0" stroke-linecap="butt" d="M18.55 70.416664L145.23334 70.416664L293.34253 62.51189" fill-rule="nonzero"/><path fill="#616161" d="M295.34253 62.51189C295.34253 61.407322 294.44708 60.51189 293.34253 60.51189C292.23795 60.51189 291.34253 61.407322 291.34253 62.51189C291.34253 63.616463 292.23795 64.511894 293.34253 64.511894C294.44708 64.511894 295.34253 63.616463 295.34253 62.51189" fill-rule="nonzero"/><path fill="#ffffff" d="M21.659374 96.916664L21.659374 89.33854L18.83125 89.33854L18.83125 88.322914L25.64375 88.322914L25.64375 89.33854L22.8 89.33854L22.8 96.916664L21.659374 96.916664ZM30.596874 94.916664L31.690624 95.041664Q31.440624 95.99479 30.7375 96.52604Q30.034374 97.05729 28.95625 97.05729Q27.596874 97.05729 26.784374 96.21354Q25.9875 95.36979 25.9875 93.854164Q25.9875 92.291664 26.8 91.43229Q27.6125 90.55729 28.89375 90.55729Q30.14375 90.55729 30.925 91.40104Q31.721874 92.24479 31.721874 93.791664Q31.721874 93.885414 31.721874 94.072914L27.08125 94.072914Q27.14375 95.104164 27.659374 95.65104Q28.175 96.18229 28.95625 96.18229Q29.534374 96.18229 29.940624 95.885414Q30.3625 95.572914 30.596874 94.916664ZM27.14375 93.21354L30.6125 93.21354Q30.55 92.416664 30.221874 92.02604Q29.70625 91.416664 28.909374 91.416664Q28.175 91.416664 27.675 91.90104Q27.190624 92.385414 27.14375 93.21354ZM37.409374 96.15104Q36.815624 96.65104 36.26875 96.854164Q35.7375 97.05729 35.1125 97.05729Q34.08125 97.05729 33.534374 96.55729Q32.9875 96.05729 32.9875 95.27604Q32.9875 94.822914 33.190624 94.447914Q33.39375 94.05729 33.7375 93.83854Q34.08125 93.604164 34.503124 93.49479Q34.8 93.40104 35.440624 93.322914Q36.70625 93.18229 37.315624 92.96354Q37.315624 92.74479 37.315624 92.697914Q37.315624 92.041664 37.01875 91.77604Q36.6125 91.43229 35.815624 91.43229Q35.08125 91.43229 34.721874 91.697914Q34.3625 91.947914 34.190624 92.604164L33.159374 92.46354Q33.3 91.80729 33.628124 91.40104Q33.95625 90.99479 34.565624 90.77604Q35.175 90.55729 35.971874 90.55729Q36.76875 90.55729 37.26875 90.74479Q37.76875 90.93229 38.003124 91.21354Q38.2375 91.49479 38.33125 91.93229Q38.378124 92.197914 38.378124 92.90104L38.378124 94.30729Q38.378124 95.77604 38.440624 96.166664Q38.51875 96.55729 38.721874 96.916664L37.6125 96.916664Q37.45625 96.58854 37.409374 96.15104ZM37.315624 93.791664Q36.7375 94.02604 35.596874 94.197914Q34.940624 94.291664 34.675 94.416664Q34.409374 94.52604 34.253124 94.74479Q34.1125 94.96354 34.1125 95.24479Q34.1125 95.666664 34.425 95.947914Q34.753124 96.229164 35.3625 96.229164Q35.971874 96.229164 36.440624 95.96354Q36.925 95.697914 37.14375 95.229164Q37.315624 94.86979 37.315624 94.18229L37.315624 93.791664ZM40.346874 96.916664L40.346874 90.697914L41.284374 90.697914L41.284374 91.572914Q41.58125 91.104164 42.065624 90.83854Q42.55 90.55729 43.175 90.55729Q43.8625 90.55729 44.3 90.83854Q44.753124 91.11979 44.925 91.635414Q45.675 90.55729 46.846874 90.55729Q47.784374 90.55729 48.26875 91.072914Q48.76875 91.572914 48.76875 92.65104L48.76875 96.916664L47.721874 96.916664L47.721874 92.99479Q47.721874 92.36979 47.6125 92.08854Q47.51875 91.80729 47.253124 91.635414Q46.9875 91.46354 46.6125 91.46354Q45.95625 91.46354 45.51875 91.90104Q45.096874 92.33854 45.096874 93.30729L45.096874 96.916664L44.034374 96.916664L44.034374 92.86979Q44.034374 92.166664 43.76875 91.822914Q43.51875 91.46354 42.940624 91.46354Q42.4875 91.46354 42.1125 91.697914Q41.7375 91.93229 41.565624 92.385414Q41.39375 92.83854 41.39375 93.68229L41.39375 96.916664L40.346874 96.916664ZM58.596874 94.916664L59.690624 95.041664Q59.440624 95.99479 58.7375 96.52604Q58.034374 97.05729 56.95625 97.05729Q55.596874 97.05729 54.784374 96.21354Q53.9875 95.36979 53.9875 93.854164Q53.9875 92.291664 54.8 91.43229Q55.6125 90.55729 56.89375 90.55729Q58.14375 90.55729 58.925 91.40104Q59.721874 92.24479 59.721874 93.791664Q59.721874 93.885414 59.721874 94.072914L55.08125 94.072914Q55.14375 95.104164 55.659374 95.65104Q56.175 96.18229 56.95625 96.18229Q57.534374 96.18229 57.940624 95.885414Q58.3625 95.572914 58.596874 94.916664ZM55.14375 93.21354L58.6125 93.21354Q58.55 92.416664 58.221874 92.02604Q57.70625 91.416664 56.909374 91.416664Q56.175 91.416664 55.675 91.90104Q55.190624 92.385414 55.14375 93.21354ZM65.31563 99.30729L65.31563 96.260414Q65.06563 96.604164 64.6125 96.83854Q64.175 97.05729 63.675 97.05729Q62.565624 97.05729 61.76875 96.18229Q60.971874 95.291664 60.971874 93.74479Q60.971874 92.80729 61.3 92.072914Q61.628124 91.322914 62.2375 90.947914Q62.8625 90.55729 63.596874 90.55729Q64.75313 90.55729 65.40938 91.52604L65.40938 90.697914L66.3625 90.697914L66.3625 99.30729L65.31563 99.30729ZM62.05 93.791664Q62.05 94.99479 62.55 95.58854Q63.065624 96.18229 63.76875 96.18229Q64.44063 96.18229 64.925 95.61979Q65.40938 95.041664 65.40938 93.885414Q65.40938 92.635414 64.89375 92.010414Q64.39375 91.385414 63.690624 91.385414Q63.01875 91.385414 62.534374 91.979164Q62.05 92.55729 62.05 93.791664ZM72.425 96.916664L72.425 95.99479Q71.69063 97.05729 70.44063 97.05729Q69.89375 97.05729 69.40938 96.854164Q68.94063 96.635414 68.70625 96.322914Q68.47188 95.99479 68.37813 95.52604Q68.31563 95.229164 68.31563 94.541664L68.31563 90.697914L69.37813 90.697914L69.37813 94.15104Q69.37813 94.96354 69.44063 95.260414Q69.53438 95.666664 69.84688 95.916664Q70.175 96.15104 70.65938 96.15104Q71.12813 96.15104 71.53438 95.916664Q71.95625 95.666664 72.12813 95.24479Q72.31563 94.822914 72.31563 94.02604L72.31563 90.697914L73.3625 90.697914L73.3625 96.916664L72.425 96.916664ZM75.34688 89.541664L75.34688 88.322914L76.40938 88.322914L76.40938 89.541664L75.34688 89.541664ZM75.34688 96.916664L75.34688 90.697914L76.40938 90.697914L76.40938 96.916664L75.34688 96.916664ZM80.64375 95.979164L80.8 96.90104Q80.34688 96.99479 80.00313 96.99479Q79.425 96.99479 79.1125 96.822914Q78.8 96.635414 78.65938 96.33854Q78.53438 96.041664 78.53438 95.08854L78.53438 91.510414L77.76875 91.510414L77.76875 90.697914L78.53438 90.697914L78.53438 89.15104L79.58125 88.52604L79.58125 90.697914L80.64375 90.697914L80.64375 91.510414L79.58125 91.510414L79.58125 95.15104Q79.58125 95.604164 79.62813 95.729164Q79.69063 95.854164 79.81563 95.93229Q79.94063 96.010414 80.175 96.010414Q80.3625 96.010414 80.64375 95.979164ZM81.3 99.30729L81.175 98.322914Q81.51875 98.416664 81.78438 98.416664Q82.12813 98.416664 82.33125 98.291664Q82.55 98.18229 82.69063 97.979164Q82.78438 97.80729 83.01875 97.18229Q83.03438 97.104164 83.1125 96.93229L80.7375 90.697914L81.87813 90.697914L83.175 94.291664Q83.425 94.979164 83.62813 95.74479Q83.81563 95.010414 84.06563 94.322914L85.39375 90.697914L86.44063 90.697914L84.08125 97.02604Q83.69063 98.041664 83.4875 98.43229Q83.20625 98.96354 82.83125 99.197914Q82.47188 99.447914 81.97188 99.447914Q81.675 99.447914 81.3 99.30729Z" fill-rule="nonzero"/><path fill="#616161" d="M19.1125 106.447914L19.1125 105.43229L24.675 105.43229L24.675 106.260414Q23.8625 107.135414 23.05 108.58854Q22.253124 110.02604 21.815624 111.55729Q21.4875 112.635414 21.409374 113.916664L20.315624 113.916664Q20.33125 112.90104 20.70625 111.46354Q21.096874 110.02604 21.8 108.697914Q22.51875 107.36979 23.33125 106.447914L19.1125 106.447914ZM26.6125 113.916664L26.6125 112.71354L27.815624 112.71354L27.815624 113.916664Q27.815624 114.572914 27.58125 114.979164Q27.346874 115.40104 26.846874 115.61979L26.55 115.166664Q26.878124 115.02604 27.034374 114.729164Q27.190624 114.447914 27.221874 113.916664L26.6125 113.916664ZM34.51875 107.43229L33.471874 107.510414Q33.33125 106.885414 33.08125 106.604164Q32.64375 106.15104 32.01875 106.15104Q31.51875 106.15104 31.128124 106.43229Q30.64375 106.80729 30.346874 107.510414Q30.065624 108.197914 30.05 109.479164Q30.425 108.90104 30.971874 108.61979Q31.534374 108.33854 32.14375 108.33854Q33.190624 108.33854 33.925 109.11979Q34.675 109.90104 34.675 111.11979Q34.675 111.93229 34.315624 112.635414Q33.971874 113.322914 33.3625 113.697914Q32.753124 114.05729 31.9875 114.05729Q30.659374 114.05729 29.83125 113.08854Q29.003124 112.11979 29.003124 109.90104Q29.003124 107.40104 29.925 106.27604Q30.721874 105.291664 32.08125 105.291664Q33.096874 105.291664 33.7375 105.86979Q34.39375 106.43229 34.51875 107.43229ZM30.221874 111.135414Q30.221874 111.68229 30.440624 112.18229Q30.675 112.666664 31.08125 112.93229Q31.503124 113.197914 31.971874 113.197914Q32.628124 113.197914 33.1125 112.666664Q33.596874 112.11979 33.596874 111.197914Q33.596874 110.30729 33.1125 109.791664Q32.64375 109.27604 31.925 109.27604Q31.20625 109.27604 30.70625 109.791664Q30.221874 110.30729 30.221874 111.135414ZM36.253124 107.385414Q36.253124 106.46354 36.70625 105.822914Q37.175 105.18229 38.05 105.18229Q38.8625 105.18229 39.39375 105.760414Q39.925 106.33854 39.925 107.447914Q39.925 108.541664 39.378124 109.135414Q38.846874 109.71354 38.065624 109.71354Q37.284374 109.71354 36.76875 109.135414Q36.253124 108.55729 36.253124 107.385414ZM38.08125 105.90104Q37.690624 105.90104 37.425 106.24479Q37.175 106.58854 37.175 107.49479Q37.175 108.322914 37.425 108.666664Q37.690624 108.99479 38.08125 108.99479Q38.4875 108.99479 38.7375 108.65104Q39.003124 108.30729 39.003124 107.416664Q39.003124 106.572914 38.7375 106.24479Q38.471874 105.90104 38.08125 105.90104ZM38.08125 114.229164L42.784374 105.18229L43.64375 105.18229L38.95625 114.229164L38.08125 114.229164ZM41.8 111.90104Q41.8 110.979164 42.253124 110.33854Q42.721874 109.697914 43.6125 109.697914Q44.425 109.697914 44.95625 110.27604Q45.4875 110.83854 45.4875 111.96354Q45.4875 113.05729 44.940624 113.65104Q44.409374 114.229164 43.6125 114.229164Q42.846874 114.229164 42.315624 113.65104Q41.8 113.072914 41.8 111.90104ZM43.64375 110.416664Q43.2375 110.416664 42.971874 110.760414Q42.721874 111.104164 42.721874 112.010414Q42.721874 112.822914 42.9875 113.166664Q43.253124 113.510414 43.64375 113.510414Q44.034374 113.510414 44.3 113.166664Q44.565624 112.822914 44.565624 111.916664Q44.565624 111.08854 44.3 110.760414Q44.034374 110.416664 43.64375 110.416664Z" fill-rule="nonzero"/><path stroke="#8a8a8a" stroke-width="1.0" stroke-linecap="butt" d="M18.55 101.416664L145.23334 101.416664L253.80145 70.11914" fill-rule="nonzero"/><path fill="#616161" d="M255.80145 70.11914C255.80145 69.01457 254.90604 68.11914 253.80145 68.11914C252.69688 68.11914 251.80145 69.01457 251.80145 70.11914C251.80145 71.22372 252.69688 72.11914 253.80145 72.11914C254.90604 72.11914 255.80145 71.22372 255.80145 70.11914" fill-rule="nonzero"/><path fill="#ffffff" d="M19.4875 127.916664L19.4875 119.322914L23.3 119.322914Q24.45625 119.322914 25.05 119.55729Q25.64375 119.791664 26.003124 120.385414Q26.3625 120.96354 26.3625 121.666664Q26.3625 122.58854 25.76875 123.21354Q25.175 123.83854 23.940624 124.010414Q24.39375 124.229164 24.628124 124.43229Q25.128124 124.885414 25.565624 125.572914L27.065624 127.916664L25.628124 127.916664L24.503124 126.135414Q24.003124 125.354164 23.675 124.947914Q23.3625 124.541664 23.096874 124.385414Q22.846874 124.21354 22.58125 124.135414Q22.39375 124.104164 21.95625 124.104164L20.628124 124.104164L20.628124 127.916664L19.4875 127.916664ZM20.628124 123.11979L23.08125 123.11979Q23.846874 123.11979 24.284374 122.96354Q24.7375 122.791664 24.95625 122.447914Q25.190624 122.08854 25.190624 121.666664Q25.190624 121.05729 24.7375 120.666664Q24.3 120.27604 23.346874 120.27604L20.628124 120.27604L20.628124 123.11979ZM32.596874 125.916664L33.690624 126.041664Q33.440624 126.99479 32.7375 127.52604Q32.034374 128.05728 30.95625 128.05728Q29.596874 128.05728 28.784374 127.21354Q27.9875 126.36979 27.9875 124.854164Q27.9875 123.291664 28.8 122.43229Q29.6125 121.55729 30.89375 121.55729Q32.14375 121.55729 32.925 122.40104Q33.721874 123.24479 33.721874 124.791664Q33.721874 124.885414 33.721874 125.072914L29.08125 125.072914Q29.14375 126.104164 29.659374 126.65104Q30.175 127.18229 30.95625 127.18229Q31.534374 127.18229 31.940624 126.885414Q32.3625 126.572914 32.596874 125.916664ZM29.14375 124.21354L32.6125 124.21354Q32.55 123.416664 32.221874 123.02604Q31.70625 122.416664 30.909374 122.416664Q30.175 122.416664 29.675 122.90104Q29.190624 123.385414 29.14375 124.21354ZM34.925 126.05729L35.95625 125.90104Q36.05 126.52604 36.440624 126.854164Q36.846874 127.18229 37.58125 127.18229Q38.3 127.18229 38.64375 126.90104Q39.003124 126.604164 39.003124 126.197914Q39.003124 125.83854 38.690624 125.635414Q38.471874 125.49479 37.6125 125.27604Q36.45625 124.979164 36.003124 124.77604Q35.565624 124.55729 35.33125 124.18229Q35.096874 123.80729 35.096874 123.33854Q35.096874 122.93229 35.284374 122.572914Q35.471874 122.21354 35.8 121.979164Q36.05 121.80729 36.471874 121.68229Q36.89375 121.55729 37.39375 121.55729Q38.1125 121.55729 38.659374 121.77604Q39.221874 121.979164 39.4875 122.33854Q39.753124 122.697914 39.846874 123.291664L38.815624 123.43229Q38.753124 122.96354 38.409374 122.697914Q38.08125 122.416664 37.45625 122.416664Q36.7375 122.416664 36.425 122.666664Q36.1125 122.90104 36.1125 123.229164Q36.1125 123.43229 36.2375 123.58854Q36.378124 123.760414 36.64375 123.86979Q36.8 123.93229 37.58125 124.135414Q38.70625 124.447914 39.14375 124.635414Q39.58125 124.822914 39.83125 125.18229Q40.08125 125.541664 40.08125 126.08854Q40.08125 126.61979 39.76875 127.08854Q39.471874 127.541664 38.89375 127.80729Q38.315624 128.05728 37.58125 128.05728Q36.3625 128.05728 35.721874 127.55729Q35.096874 127.041664 34.925 126.05729ZM46.596874 125.916664L47.690624 126.041664Q47.440624 126.99479 46.7375 127.52604Q46.034374 128.05728 44.95625 128.05728Q43.596874 128.05728 42.784374 127.21354Q41.9875 126.36979 41.9875 124.854164Q41.9875 123.291664 42.8 122.43229Q43.6125 121.55729 44.89375 121.55729Q46.14375 121.55729 46.925 122.40104Q47.721874 123.24479 47.721874 124.791664Q47.721874 124.885414 47.721874 125.072914L43.08125 125.072914Q43.14375 126.104164 43.659374 126.65104Q44.175 127.18229 44.95625 127.18229Q45.534374 127.18229 45.940624 126.885414Q46.3625 126.572914 46.596874 125.916664ZM43.14375 124.21354L46.6125 124.21354Q46.55 123.416664 46.221874 123.02604Q45.70625 122.416664 44.909374 122.416664Q44.175 122.416664 43.675 122.90104Q43.190624 123.385414 43.14375 124.21354ZM49.33125 127.916664L49.33125 121.697914L50.284374 121.697914L50.284374 122.635414Q50.64375 121.979164 50.940624 121.77604Q51.253124 121.55729 51.628124 121.55729Q52.159374 121.55729 52.70625 121.885414L52.346874 122.86979Q51.95625 122.635414 51.58125 122.635414Q51.221874 122.635414 50.940624 122.854164Q50.675 123.05729 50.565624 123.43229Q50.378124 123.99479 50.378124 124.65104L50.378124 127.916664L49.33125 127.916664ZM55.065624 127.916664L52.70625 121.697914L53.815624 121.697914L55.159374 125.416664Q55.3625 126.02604 55.55 126.666664Q55.690624 126.18229 55.940624 125.49479L57.33125 121.697914L58.409374 121.697914L56.05 127.916664L55.065624 127.916664ZM62.596874 125.916664L63.690624 126.041664Q63.440624 126.99479 62.7375 127.52604Q62.034374 128.05728 60.95625 128.05728Q59.596874 128.05728 58.784374 127.21354Q57.9875 126.36979 57.9875 124.854164Q57.9875 123.291664 58.8 122.43229Q59.6125 121.55729 60.89375 121.55729Q62.14375 121.55729 62.925 122.40104Q63.721874 123.24479 63.721874 124.791664Q63.721874 124.885414 63.721874 125.072914L59.08125 125.072914Q59.14375 126.104164 59.659374 126.65104Q60.175 127.18229 60.95625 127.18229Q61.534374 127.18229 61.940624 126.885414Q62.3625 126.572914 62.596874 125.916664ZM59.14375 124.21354L62.6125 124.21354Q62.55 123.416664 62.221874 123.02604Q61.70625 122.416664 60.909374 122.416664Q60.175 122.416664 59.675 122.90104Q59.190624 123.385414 59.14375 124.21354ZM72.40938 127.15104Q71.81563 127.65104 71.26875 127.854164Q70.7375 128.05728 70.1125 128.05728Q69.08125 128.05728 68.53438 127.55729Q67.9875 127.05729 67.9875 126.27604Q67.9875 125.822914 68.19063 125.447914Q68.39375 125.05729 68.7375 124.83854Q69.08125 124.604164 69.50313 124.49479Q69.8 124.40104 70.44063 124.322914Q71.70625 124.18229 72.31563 123.96354Q72.31563 123.74479 72.31563 123.697914Q72.31563 123.041664 72.01875 122.77604Q71.6125 122.43229 70.81563 122.43229Q70.08125 122.43229 69.72188 122.697914Q69.3625 122.947914 69.19063 123.604164L68.15938 123.46354Q68.3 122.80729 68.62813 122.40104Q68.95625 121.99479 69.56563 121.77604Q70.175 121.55729 70.97188 121.55729Q71.76875 121.55729 72.26875 121.74479Q72.76875 121.93229 73.00313 122.21354Q73.2375 122.49479 73.33125 122.93229Q73.37813 123.197914 73.37813 123.90104L73.37813 125.30729Q73.37813 126.77604 73.44063 127.166664Q73.51875 127.55729 73.72188 127.916664L72.6125 127.916664Q72.45625 127.58854 72.40938 127.15104ZM72.31563 124.791664Q71.7375 125.02604 70.59688 125.197914Q69.94063 125.291664 69.675 125.416664Q69.40938 125.52604 69.25313 125.74479Q69.1125 125.96354 69.1125 126.24479Q69.1125 126.666664 69.425 126.947914Q69.75313 127.229164 70.3625 127.229164Q70.97188 127.229164 71.44063 126.96354Q71.925 126.697914 72.14375 126.229164Q72.31563 125.86979 72.31563 125.18229L72.31563 124.791664ZM79.40938 125.635414L80.44063 125.77604Q80.26875 126.83854 79.56563 127.447914Q78.8625 128.05728 77.84688 128.05728Q76.56563 128.05728 75.78438 127.229164Q75.01875 126.385414 75.01875 124.822914Q75.01875 123.822914 75.34688 123.072914Q75.69063 122.30729 76.3625 121.93229Q77.05 121.55729 77.8625 121.55729Q78.8625 121.55729 79.50313 122.072914Q80.15938 122.572914 80.34688 123.52604L79.31563 123.68229Q79.175 123.05729 78.8 122.74479Q78.425 122.416664 77.89375 122.416664Q77.09688 122.416664 76.59688 122.99479Q76.09688 123.55729 76.09688 124.791664Q76.09688 126.05729 76.58125 126.61979Q77.06563 127.18229 77.83125 127.18229Q78.45625 127.18229 78.8625 126.80729Q79.28438 126.43229 79.40938 125.635414ZM85.40938 125.635414L86.44063 125.77604Q86.26875 126.83854 85.56563 127.447914Q84.8625 128.05728 83.84688 128.05728Q82.56563 128.05728 81.78438 127.229164Q81.01875 126.385414 81.01875 124.822914Q81.01875 123.822914 81.34688 123.072914Q81.69063 122.30729 82.3625 121.93229Q83.05 121.55729 83.8625 121.55729Q84.8625 121.55729 85.50313 122.072914Q86.15938 122.572914 86.34688 123.52604L85.31563 123.68229Q85.175 123.05729 84.8 122.74479Q84.425 122.416664 83.89375 122.416664Q83.09688 122.416664 82.59688 122.99479Q82.09688 123.55729 82.09688 124.791664Q82.09688 126.05729 82.58125 126.61979Q83.06563 127.18229 83.83125 127.18229Q84.45625 127.18229 84.8625 126.80729Q85.28438 126.43229 85.40938 125.635414ZM86.95625 124.80729Q86.95625 123.072914 87.90938 122.24479Q88.70625 121.55729 89.8625 121.55729Q91.14375 121.55729 91.95625 122.40104Q92.78438 123.229164 92.78438 124.71354Q92.78438 125.916664 92.425 126.604164Q92.06563 127.291664 91.3625 127.68229Q90.675 128.05728 89.8625 128.05728Q88.56563 128.05728 87.75313 127.229164Q86.95625 126.385414 86.95625 124.80729ZM88.03438 124.80729Q88.03438 125.99479 88.55 126.58854Q89.08125 127.18229 89.8625 127.18229Q90.65938 127.18229 91.175 126.58854Q91.69063 125.99479 91.69063 124.77604Q91.69063 123.61979 91.15938 123.02604Q90.64375 122.43229 89.8625 122.43229Q89.08125 122.43229 88.55 123.02604Q88.03438 123.604164 88.03438 124.80729ZM98.425 127.916664L98.425 126.99479Q97.69063 128.05728 96.44063 128.05728Q95.89375 128.05728 95.40938 127.854164Q94.94063 127.635414 94.70625 127.322914Q94.47188 126.99479 94.37813 126.52604Q94.31563 126.229164 94.31563 125.541664L94.31563 121.697914L95.37813 121.697914L95.37813 125.15104Q95.37813 125.96354 95.44063 126.260414Q95.53438 126.666664 95.84688 126.916664Q96.175 127.15104 96.65938 127.15104Q97.12813 127.15104 97.53438 126.916664Q97.95625 126.666664 98.12813 126.24479Q98.31563 125.822914 98.31563 125.02604L98.31563 121.697914L99.3625 121.697914L99.3625 127.916664L98.425 127.916664ZM101.34688 127.916664L101.34688 121.697914L102.28438 121.697914L102.28438 122.572914Q102.97188 121.55729 104.26875 121.55729Q104.83125 121.55729 105.3 121.760414Q105.78438 121.96354 106.01875 122.291664Q106.25313 122.61979 106.34688 123.05729Q106.39375 123.354164 106.39375 124.08854L106.39375 127.916664L105.34688 127.916664L105.34688 124.135414Q105.34688 123.479164 105.22188 123.166664Q105.09688 122.854164 104.78438 122.666664Q104.47188 122.46354 104.05 122.46354Q103.37813 122.46354 102.87813 122.90104Q102.39375 123.322914 102.39375 124.510414L102.39375 127.916664L101.34688 127.916664ZM110.64375 126.979164L110.8 127.90104Q110.34688 127.99479 110.00313 127.99479Q109.425 127.99479 109.1125 127.822914Q108.8 127.635414 108.65938 127.33854Q108.53438 127.041664 108.53438 126.08854L108.53438 122.510414L107.76875 122.510414L107.76875 121.697914L108.53438 121.697914L108.53438 120.15104L109.58125 119.52604L109.58125 121.697914L110.64375 121.697914L110.64375 122.510414L109.58125 122.510414L109.58125 126.15104Q109.58125 126.604164 109.62813 126.729164Q109.69063 126.854164 109.81563 126.93229Q109.94063 127.010414 110.175 127.010414Q110.3625 127.010414 110.64375 126.979164Z" fill-rule="nonzero"/><path fill="#616161" d="M19.05 142.66667L20.159374 142.57292Q20.284374 143.38542 20.721874 143.79167Q21.175 144.19792 21.815624 144.19792Q22.565624 144.19792 23.096874 143.6198Q23.628124 143.04167 23.628124 142.10417Q23.628124 141.19792 23.1125 140.6823Q22.6125 140.15105 21.784374 140.15105Q21.284374 140.15105 20.8625 140.38542Q20.45625 140.6198 20.221874 140.97917L19.2375 140.85417L20.065624 136.44792L24.346874 136.44792L24.346874 137.44792L20.909374 137.44792L20.45625 139.76042Q21.221874 139.21355 22.065624 139.21355Q23.190624 139.21355 23.95625 139.9948Q24.7375 140.77605 24.7375 142.01042Q24.7375 143.16667 24.065624 144.02605Q23.2375 145.0573 21.815624 145.0573Q20.64375 145.0573 19.89375 144.40105Q19.159374 143.7448 19.05 142.66667ZM26.6125 144.91667L26.6125 143.71355L27.815624 143.71355L27.815624 144.91667Q27.815624 145.57292 27.58125 145.97917Q27.346874 146.40105 26.846874 146.6198L26.55 146.16667Q26.878124 146.02605 27.034374 145.72917Q27.190624 145.44792 27.221874 144.91667L26.6125 144.91667ZM29.05 140.6823Q29.05 139.15105 29.3625 138.22917Q29.675 137.29167 30.284374 136.79167Q30.909374 136.29167 31.846874 136.29167Q32.534374 136.29167 33.05 136.57292Q33.58125 136.85417 33.925 137.38542Q34.26875 137.90105 34.45625 138.65105Q34.64375 139.40105 34.64375 140.6823Q34.64375 142.19792 34.33125 143.1198Q34.034374 144.04167 33.409374 144.5573Q32.8 145.0573 31.846874 145.0573Q30.6125 145.0573 29.89375 144.16667Q29.05 143.10417 29.05 140.6823ZM30.128124 140.6823Q30.128124 142.79167 30.628124 143.4948Q31.128124 144.19792 31.846874 144.19792Q32.58125 144.19792 33.065624 143.4948Q33.565624 142.79167 33.565624 140.6823Q33.565624 138.5573 33.065624 137.8698Q32.58125 137.16667 31.83125 137.16667Q31.1125 137.16667 30.675 137.77605Q30.128124 138.5573 30.128124 140.6823ZM36.253124 138.38542Q36.253124 137.46355 36.70625 136.82292Q37.175 136.1823 38.05 136.1823Q38.8625 136.1823 39.39375 136.76042Q39.925 137.33855 39.925 138.44792Q39.925 139.54167 39.378124 140.13542Q38.846874 140.71355 38.065624 140.71355Q37.284374 140.71355 36.76875 140.13542Q36.253124 139.5573 36.253124 138.38542ZM38.08125 136.90105Q37.690624 136.90105 37.425 137.2448Q37.175 137.58855 37.175 138.4948Q37.175 139.32292 37.425 139.66667Q37.690624 139.9948 38.08125 139.9948Q38.4875 139.9948 38.7375 139.65105Q39.003124 139.3073 39.003124 138.41667Q39.003124 137.57292 38.7375 137.2448Q38.471874 136.90105 38.08125 136.90105ZM38.08125 145.22917L42.784374 136.1823L43.64375 136.1823L38.95625 145.22917L38.08125 145.22917ZM41.8 142.90105Q41.8 141.97917 42.253124 141.33855Q42.721874 140.69792 43.6125 140.69792Q44.425 140.69792 44.95625 141.27605Q45.4875 141.83855 45.4875 142.96355Q45.4875 144.0573 44.940624 144.65105Q44.409374 145.22917 43.6125 145.22917Q42.846874 145.22917 42.315624 144.65105Q41.8 144.07292 41.8 142.90105ZM43.64375 141.41667Q43.2375 141.41667 42.971874 141.76042Q42.721874 142.10417 42.721874 143.01042Q42.721874 143.82292 42.9875 144.16667Q43.253124 144.51042 43.64375 144.51042Q44.034374 144.51042 44.3 144.16667Q44.565624 143.82292 44.565624 142.91667Q44.565624 142.08855 44.3 141.76042Q44.034374 141.41667 43.64375 141.41667Z" fill-rule="nonzero"/><path stroke="#8a8a8a" stroke-width="1.0" stroke-linecap="butt" d="M18.55 132.41667L145.23334 132.41667L205.87366 98.26071" fill-rule="nonzero"/><path fill="#616161" d="M207.87366 98.26071C207.87366 97.15614 206.97823 96.26071 205.87366 96.26071C204.76909 96.26071 203.87366 97.15614 203.87366 98.26071C203.87366 99.36529 204.76909 100.26071 205.87366 100.26071C206.97823 100.26071 207.87366 99.36529 207.87366 98.26071" fill-rule="nonzero"/><path fill="#ffffff" d="M471.575 326.87137L471.575 318.27762L472.7 318.27762L472.7 326.87137L471.575 326.87137ZM474.2469 326.87137L474.2469 320.65262L475.1844 320.65262L475.1844 321.52762Q475.8719 320.512 477.16876 320.512Q477.73126 320.512 478.2 320.71512Q478.6844 320.91824 478.91876 321.24637Q479.15314 321.5745 479.2469 322.012Q479.29376 322.30887 479.29376 323.04324L479.29376 326.87137L478.2469 326.87137L478.2469 323.09012Q478.2469 322.43387 478.1219 322.12137Q477.9969 321.80887 477.6844 321.62137Q477.3719 321.41824 476.95 321.41824Q476.27814 321.41824 475.77814 321.85574Q475.29376 322.27762 475.29376 323.46512L475.29376 326.87137L474.2469 326.87137ZM485.27814 326.87137L485.27814 326.09012Q484.6844 327.012 483.54376 327.012Q482.79376 327.012 482.16876 326.60574Q481.54376 326.18387 481.2 325.4495Q480.85626 324.71512 480.85626 323.762Q480.85626 322.84012 481.16876 322.0745Q481.48126 321.30887 482.10626 320.91824Q482.73126 320.512 483.4969 320.512Q484.0594 320.512 484.4969 320.74637Q484.9344 320.98074 485.21564 321.35574L485.21564 318.27762L486.2625 318.27762L486.2625 326.87137L485.27814 326.87137ZM481.95 323.762Q481.95 324.96512 482.45 325.55887Q482.95 326.137 483.6375 326.137Q484.325 326.137 484.8094 325.5745Q485.29376 325.012 485.29376 323.85574Q485.29376 322.5745 484.79376 321.98074Q484.3094 321.387 483.59064 321.387Q482.8875 321.387 482.41876 321.96512Q481.95 322.52762 481.95 323.762ZM492.4969 324.87137L493.59064 324.99637Q493.34064 325.9495 492.6375 326.48074Q491.9344 327.012 490.85626 327.012Q489.4969 327.012 488.6844 326.16824Q487.8875 325.3245 487.8875 323.80887Q487.8875 322.24637 488.7 321.387Q489.5125 320.512 490.79376 320.512Q492.04376 320.512 492.825 321.35574Q493.6219 322.1995 493.6219 323.74637Q493.6219 323.84012 493.6219 324.02762L488.98126 324.02762Q489.04376 325.05887 489.5594 325.60574Q490.075 326.137 490.85626 326.137Q491.4344 326.137 491.84064 325.84012Q492.2625 325.52762 492.4969 324.87137ZM489.04376 323.16824L492.5125 323.16824Q492.45 322.37137 492.1219 321.98074Q491.60626 321.37137 490.8094 321.37137Q490.075 321.37137 489.575 321.85574Q489.09064 322.34012 489.04376 323.16824ZM495.2469 329.262L495.2469 320.65262L496.2 320.65262L496.2 321.4495Q496.54376 320.98074 496.96564 320.74637Q497.40314 320.512 498.0125 320.512Q498.8094 320.512 499.41876 320.91824Q500.02814 321.3245 500.325 322.0745Q500.6375 322.8245 500.6375 323.71512Q500.6375 324.66824 500.29376 325.43387Q499.96564 326.1995 499.3094 326.60574Q498.65314 327.012 497.9344 327.012Q497.40314 327.012 496.98126 326.79324Q496.5594 326.55887 496.29376 326.23074L496.29376 329.262L495.2469 329.262ZM496.2 323.79324Q496.2 324.99637 496.6844 325.5745Q497.16876 326.137 497.85626 326.137Q498.5594 326.137 499.0594 325.54324Q499.5594 324.9495 499.5594 323.6995Q499.5594 322.512 499.075 321.93387Q498.59064 321.34012 497.90314 321.34012Q497.23126 321.34012 496.71564 321.96512Q496.2 322.59012 496.2 323.79324ZM506.4969 324.87137L507.59064 324.99637Q507.34064 325.9495 506.6375 326.48074Q505.9344 327.012 504.85626 327.012Q503.4969 327.012 502.6844 326.16824Q501.8875 325.3245 501.8875 323.80887Q501.8875 322.24637 502.7 321.387Q503.5125 320.512 504.79376 320.512Q506.04376 320.512 506.825 321.35574Q507.6219 322.1995 507.6219 323.74637Q507.6219 323.84012 507.6219 324.02762L502.98126 324.02762Q503.04376 325.05887 503.5594 325.60574Q504.075 326.137 504.85626 326.137Q505.4344 326.137 505.84064 325.84012Q506.2625 325.52762 506.4969 324.87137ZM503.04376 323.16824L506.5125 323.16824Q506.45 322.37137 506.1219 321.98074Q505.60626 321.37137 504.8094 321.37137Q504.075 321.37137 503.575 321.85574Q503.09064 322.34012 503.04376 323.16824ZM509.2469 326.87137L509.2469 320.65262L510.1844 320.65262L510.1844 321.52762Q510.8719 320.512 512.16876 320.512Q512.73126 320.512 513.2 320.71512Q513.6844 320.91824 513.91876 321.24637Q514.15314 321.5745 514.2469 322.012Q514.29376 322.30887 514.29376 323.04324L514.29376 326.87137L513.2469 326.87137L513.2469 323.09012Q513.2469 322.43387 513.1219 322.12137Q512.9969 321.80887 512.6844 321.62137Q512.3719 321.41824 511.95 321.41824Q511.27814 321.41824 510.77814 321.85574Q510.29376 322.27762 510.29376 323.46512L510.29376 326.87137L509.2469 326.87137ZM520.27814 326.87137L520.27814 326.09012Q519.6844 327.012 518.54376 327.012Q517.79376 327.012 517.16876 326.60574Q516.54376 326.18387 516.2 325.4495Q515.85626 324.71512 515.85626 323.762Q515.85626 322.84012 516.16876 322.0745Q516.48126 321.30887 517.10626 320.91824Q517.73126 320.512 518.4969 320.512Q519.0594 320.512 519.4969 320.74637Q519.9344 320.98074 520.21564 321.35574L520.21564 318.27762L521.2625 318.27762L521.2625 326.87137L520.27814 326.87137ZM516.95 323.762Q516.95 324.96512 517.45 325.55887Q517.95 326.137 518.6375 326.137Q519.325 326.137 519.8094 325.5745Q520.29376 325.012 520.29376 323.85574Q520.29376 322.5745 519.79376 321.98074Q519.3094 321.387 518.59064 321.387Q517.8875 321.387 517.41876 321.96512Q516.95 322.52762 516.95 323.762ZM527.4969 324.87137L528.59064 324.99637Q528.34064 325.9495 527.6375 326.48074Q526.9344 327.012 525.85626 327.012Q524.4969 327.012 523.6844 326.16824Q522.8875 325.3245 522.8875 323.80887Q522.8875 322.24637 523.7 321.387Q524.5125 320.512 525.79376 320.512Q527.04376 320.512 527.825 321.35574Q528.6219 322.1995 528.6219 323.74637Q528.6219 323.84012 528.6219 324.02762L523.98126 324.02762Q524.04376 325.05887 524.5594 325.60574Q525.075 326.137 525.85626 326.137Q526.4344 326.137 526.84064 325.84012Q527.2625 325.52762 527.4969 324.87137ZM524.04376 323.16824L527.5125 323.16824Q527.45 322.37137 527.1219 321.98074Q526.60626 321.37137 525.8094 321.37137Q525.075 321.37137 524.575 321.85574Q524.09064 322.34012 524.04376 323.16824ZM530.2469 326.87137L530.2469 320.65262L531.1844 320.65262L531.1844 321.52762Q531.8719 320.512 533.16876 320.512Q533.73126 320.512 534.2 320.71512Q534.6844 320.91824 534.91876 321.24637Q535.15314 321.5745 535.2469 322.012Q535.29376 322.30887 535.29376 323.04324L535.29376 326.87137L534.2469 326.87137L534.2469 323.09012Q534.2469 322.43387 534.1219 322.12137Q533.9969 321.80887 533.6844 321.62137Q533.3719 321.41824 532.95 321.41824Q532.27814 321.41824 531.77814 321.85574Q531.29376 322.27762 531.29376 323.46512L531.29376 326.87137L530.2469 326.87137ZM539.54376 325.93387L539.7 326.85574Q539.2469 326.9495 538.90314 326.9495Q538.325 326.9495 538.0125 326.77762Q537.7 326.59012 537.5594 326.29324Q537.4344 325.99637 537.4344 325.04324L537.4344 321.46512L536.66876 321.46512L536.66876 320.65262L537.4344 320.65262L537.4344 319.10574L538.48126 318.48074L538.48126 320.65262L539.54376 320.65262L539.54376 321.46512L538.48126 321.46512L538.48126 325.10574Q538.48126 325.55887 538.52814 325.68387Q538.59064 325.80887 538.71564 325.887Q538.84064 325.96512 539.075 325.96512Q539.2625 325.96512 539.54376 325.93387ZM544.3875 326.87137L542.48126 320.65262L543.575 320.65262L544.5594 324.24637L544.9344 325.5745Q544.96564 325.48074 545.2625 324.29324L546.2469 320.65262L547.325 320.65262L548.2625 324.262L548.575 325.4495L548.9344 324.24637L549.9969 320.65262L551.02814 320.65262L549.075 326.87137L547.98126 326.87137L546.9969 323.137L546.7469 322.09012L545.4969 326.87137L544.3875 326.87137ZM556.3094 326.10574Q555.71564 326.60574 555.16876 326.80887Q554.6375 327.012 554.0125 327.012Q552.98126 327.012 552.4344 326.512Q551.8875 326.012 551.8875 325.23074Q551.8875 324.77762 552.09064 324.40262Q552.29376 324.012 552.6375 323.79324Q552.98126 323.55887 553.40314 323.4495Q553.7 323.35574 554.34064 323.27762Q555.60626 323.137 556.21564 322.91824Q556.21564 322.6995 556.21564 322.65262Q556.21564 321.99637 555.91876 321.73074Q555.5125 321.387 554.71564 321.387Q553.98126 321.387 553.6219 321.65262Q553.2625 321.90262 553.09064 322.55887L552.0594 322.41824Q552.2 321.762 552.52814 321.35574Q552.85626 320.9495 553.46564 320.73074Q554.075 320.512 554.8719 320.512Q555.66876 320.512 556.16876 320.6995Q556.66876 320.887 556.90314 321.16824Q557.1375 321.4495 557.23126 321.887Q557.27814 322.15262 557.27814 322.85574L557.27814 324.262Q557.27814 325.73074 557.34064 326.12137Q557.41876 326.512 557.6219 326.87137L556.5125 326.87137Q556.35626 326.54324 556.3094 326.10574ZM556.21564 323.74637Q555.6375 323.98074 554.4969 324.15262Q553.84064 324.24637 553.575 324.37137Q553.3094 324.48074 553.15314 324.6995Q553.0125 324.91824 553.0125 325.1995Q553.0125 325.62137 553.325 325.90262Q553.65314 326.18387 554.2625 326.18387Q554.8719 326.18387 555.34064 325.91824Q555.825 325.65262 556.04376 325.18387Q556.21564 324.8245 556.21564 324.137L556.21564 323.74637ZM559.21564 326.87137L559.21564 318.27762L560.27814 318.27762L560.27814 326.87137L559.21564 326.87137ZM562.21564 326.87137L562.21564 318.27762L563.27814 318.27762L563.27814 326.87137L562.21564 326.87137ZM569.4969 324.87137L570.59064 324.99637Q570.34064 325.9495 569.6375 326.48074Q568.9344 327.012 567.85626 327.012Q566.4969 327.012 565.6844 326.16824Q564.8875 325.3245 564.8875 323.80887Q564.8875 322.24637 565.7 321.387Q566.5125 320.512 567.79376 320.512Q569.04376 320.512 569.825 321.35574Q570.6219 322.1995 570.6219 323.74637Q570.6219 323.84012 570.6219 324.02762L565.98126 324.02762Q566.04376 325.05887 566.5594 325.60574Q567.075 326.137 567.85626 326.137Q568.4344 326.137 568.84064 325.84012Q569.2625 325.52762 569.4969 324.87137ZM566.04376 323.16824L569.5125 323.16824Q569.45 322.37137 569.1219 321.98074Q568.60626 321.37137 567.8094 321.37137Q567.075 321.37137 566.575 321.85574Q566.09064 322.34012 566.04376 323.16824ZM574.54376 325.93387L574.7 326.85574Q574.2469 326.9495 573.90314 326.9495Q573.325 326.9495 573.0125 326.77762Q572.7 326.59012 572.5594 326.29324Q572.4344 325.99637 572.4344 325.04324L572.4344 321.46512L571.66876 321.46512L571.66876 320.65262L572.4344 320.65262L572.4344 319.10574L573.48126 318.48074L573.48126 320.65262L574.54376 320.65262L574.54376 321.46512L573.48126 321.46512L573.48126 325.10574Q573.48126 325.55887 573.52814 325.68387Q573.59064 325.80887 573.71564 325.887Q573.84064 325.96512 574.075 325.96512Q574.2625 325.96512 574.54376 325.93387ZM574.825 325.012L575.85626 324.85574Q575.95 325.48074 576.34064 325.80887Q576.7469 326.137 577.48126 326.137Q578.2 326.137 578.54376 325.85574Q578.90314 325.55887 578.90314 325.15262Q578.90314 324.79324 578.59064 324.59012Q578.3719 324.4495 577.5125 324.23074Q576.35626 323.93387 575.90314 323.73074Q575.46564 323.512 575.23126 323.137Q574.9969 322.762 574.9969 322.29324Q574.9969 321.887 575.1844 321.52762Q575.3719 321.16824 575.7 320.93387Q575.95 320.762 576.3719 320.637Q576.79376 320.512 577.29376 320.512Q578.0125 320.512 578.5594 320.73074Q579.1219 320.93387 579.3875 321.29324Q579.65314 321.65262 579.7469 322.24637L578.71564 322.387Q578.65314 321.91824 578.3094 321.65262Q577.98126 321.37137 577.35626 321.37137Q576.6375 321.37137 576.325 321.62137Q576.0125 321.85574 576.0125 322.18387Q576.0125 322.387 576.1375 322.54324Q576.27814 322.71512 576.54376 322.8245Q576.7 322.887 577.48126 323.09012Q578.60626 323.40262 579.04376 323.59012Q579.48126 323.77762 579.73126 324.137Q579.98126 324.49637 579.98126 325.04324Q579.98126 325.5745 579.66876 326.04324Q579.3719 326.49637 578.79376 326.762Q578.21564 327.012 577.48126 327.012Q576.2625 327.012 575.6219 326.512Q574.9969 325.99637 574.825 325.012Z" fill-rule="nonzero"/><path fill="#616161" d="M548.575 339.21512Q547.91876 338.96512 547.59064 338.52762Q547.27814 338.0745 547.27814 337.46512Q547.27814 336.52762 547.95 335.887Q548.6375 335.24637 549.7469 335.24637Q550.8719 335.24637 551.5594 335.90262Q552.2469 336.55887 552.2469 337.49637Q552.2469 338.09012 551.9344 338.52762Q551.6219 338.96512 550.98126 339.21512Q551.77814 339.46512 552.1844 340.04324Q552.59064 340.62137 552.59064 341.41824Q552.59064 342.512 551.8094 343.262Q551.04376 344.012 549.7625 344.012Q548.4969 344.012 547.71564 343.262Q546.9344 342.512 546.9344 341.387Q546.9344 340.54324 547.35626 339.98074Q547.79376 339.41824 548.575 339.21512ZM548.35626 337.41824Q548.35626 338.02762 548.7469 338.41824Q549.15314 338.80887 549.77814 338.80887Q550.3875 338.80887 550.77814 338.43387Q551.16876 338.04324 551.16876 337.48074Q551.16876 336.90262 550.7625 336.512Q550.35626 336.10574 549.7625 336.10574Q549.15314 336.10574 548.7469 336.49637Q548.35626 336.887 548.35626 337.41824ZM548.02814 341.387Q548.02814 341.84012 548.23126 342.262Q548.45 342.68387 548.8719 342.91824Q549.29376 343.15262 549.77814 343.15262Q550.52814 343.15262 551.0125 342.66824Q551.5125 342.18387 551.5125 341.43387Q551.5125 340.66824 551.0125 340.16824Q550.5125 339.66824 549.7469 339.66824Q548.9969 339.66824 548.5125 340.16824Q548.02814 340.65262 548.02814 341.387ZM553.95 341.62137L555.0594 341.52762Q555.1844 342.34012 555.6219 342.74637Q556.075 343.15262 556.71564 343.15262Q557.46564 343.15262 557.9969 342.5745Q558.52814 341.99637 558.52814 341.05887Q558.52814 340.15262 558.0125 339.637Q557.5125 339.10574 556.6844 339.10574Q556.1844 339.10574 555.7625 339.34012Q555.35626 339.5745 555.1219 339.93387L554.1375 339.80887L554.96564 335.40262L559.2469 335.40262L559.2469 336.40262L555.8094 336.40262L555.35626 338.71512Q556.1219 338.16824 556.96564 338.16824Q558.09064 338.16824 558.85626 338.9495Q559.6375 339.73074 559.6375 340.96512Q559.6375 342.12137 558.96564 342.98074Q558.1375 344.012 556.71564 344.012Q555.54376 344.012 554.79376 343.35574Q554.0594 342.6995 553.95 341.62137ZM561.5125 343.87137L561.5125 342.66824L562.71564 342.66824L562.71564 343.87137Q562.71564 344.52762 562.48126 344.93387Q562.2469 345.35574 561.7469 345.5745L561.45 345.12137Q561.77814 344.98074 561.9344 344.68387Q562.09064 344.40262 562.1219 343.87137L561.5125 343.87137ZM564.10626 341.887L565.1219 341.79324Q565.2469 342.512 565.60626 342.84012Q565.98126 343.15262 566.54376 343.15262Q567.02814 343.15262 567.3875 342.93387Q567.7625 342.6995 567.9969 342.34012Q568.23126 341.96512 568.3875 341.34012Q568.54376 340.6995 568.54376 340.04324Q568.54376 339.96512 568.54376 339.8245Q568.23126 340.3245 567.6844 340.65262Q567.1375 340.96512 566.4969 340.96512Q565.41876 340.96512 564.6844 340.1995Q563.95 339.41824 563.95 338.15262Q563.95 336.84012 564.71564 336.04324Q565.4969 335.24637 566.65314 335.24637Q567.48126 335.24637 568.16876 335.6995Q568.8719 336.15262 569.23126 336.99637Q569.59064 337.8245 569.59064 339.40262Q569.59064 341.04324 569.23126 342.02762Q568.8875 342.99637 568.16876 343.512Q567.46564 344.012 566.52814 344.012Q565.5125 344.012 564.8719 343.46512Q564.23126 342.90262 564.10626 341.887ZM568.41876 338.09012Q568.41876 337.18387 567.9344 336.65262Q567.46564 336.12137 566.77814 336.12137Q566.075 336.12137 565.54376 336.6995Q565.02814 337.262 565.02814 338.18387Q565.02814 338.99637 565.52814 339.512Q566.02814 340.02762 566.7469 340.02762Q567.48126 340.02762 567.95 339.512Q568.41876 338.99637 568.41876 338.09012ZM571.15314 337.34012Q571.15314 336.41824 571.60626 335.77762Q572.075 335.137 572.95 335.137Q573.7625 335.137 574.29376 335.71512Q574.825 336.29324 574.825 337.40262Q574.825 338.49637 574.27814 339.09012Q573.7469 339.66824 572.96564 339.66824Q572.1844 339.66824 571.66876 339.09012Q571.15314 338.512 571.15314 337.34012ZM572.98126 335.85574Q572.59064 335.85574 572.325 336.1995Q572.075 336.54324 572.075 337.4495Q572.075 338.27762 572.325 338.62137Q572.59064 338.9495 572.98126 338.9495Q573.3875 338.9495 573.6375 338.60574Q573.90314 338.262 573.90314 337.37137Q573.90314 336.52762 573.6375 336.1995Q573.3719 335.85574 572.98126 335.85574ZM572.98126 344.18387L577.6844 335.137L578.54376 335.137L573.85626 344.18387L572.98126 344.18387ZM576.7 341.85574Q576.7 340.93387 577.15314 340.29324Q577.6219 339.65262 578.5125 339.65262Q579.325 339.65262 579.85626 340.23074Q580.3875 340.79324 580.3875 341.91824Q580.3875 343.012 579.84064 343.60574Q579.3094 344.18387 578.5125 344.18387Q577.7469 344.18387 577.21564 343.60574Q576.7 343.02762 576.7 341.85574ZM578.54376 340.37137Q578.1375 340.37137 577.8719 340.71512Q577.6219 341.05887 577.6219 341.96512Q577.6219 342.77762 577.8875 343.12137Q578.15314 343.46512 578.54376 343.46512Q578.9344 343.46512 579.2 343.12137Q579.46564 342.77762 579.46564 341.87137Q579.46564 341.04324 579.2 340.71512Q578.9344 340.37137 578.54376 340.37137Z" fill-rule="nonzero"/><path stroke="#8a8a8a" stroke-width="1.0" stroke-linecap="butt" d="M581.45 331.37137L454.76666 331.37137L360.5761 331.37137" fill-rule="nonzero"/><path fill="#616161" d="M362.5761 331.37137C362.5761 330.26678 361.6807 329.37137 360.5761 329.37137C359.47156 329.37137 358.5761 330.26678 358.5761 331.37137C358.5761 332.47592 359.47156 333.37137 360.5761 333.37137C361.6807 333.37137 362.5761 332.47592 362.5761 331.37137" fill-rule="nonzero"/><path fill="#757575" d="M19.51875 30.58125Q19.51875 27.01875 21.425 25.003124Q23.346874 22.971874 26.378124 22.971874Q28.3625 22.971874 29.940624 23.925Q31.534374 24.878124 32.3625 26.58125Q33.20625 28.26875 33.20625 30.409374Q33.20625 32.58125 32.33125 34.3Q31.45625 36.01875 29.83125 36.909374Q28.221874 37.8 26.3625 37.8Q24.346874 37.8 22.753124 36.83125Q21.159374 35.846874 20.33125 34.159374Q19.51875 32.45625 19.51875 30.58125ZM21.471874 30.6125Q21.471874 33.190624 22.8625 34.690624Q24.253124 36.175 26.346874 36.175Q28.4875 36.175 29.8625 34.675Q31.253124 33.159374 31.253124 30.39375Q31.253124 28.659374 30.659374 27.3625Q30.08125 26.05 28.940624 25.33125Q27.8 24.6125 26.378124 24.6125Q24.378124 24.6125 22.925 26.003124Q21.471874 27.378124 21.471874 30.6125ZM35.83125 37.55L35.83125 23.2375L37.58125 23.2375L37.58125 37.55L35.83125 37.55ZM46.596874 37.55L46.596874 36.2375Q45.6125 37.784374 43.690624 37.784374Q42.45625 37.784374 41.409374 37.096874Q40.378124 36.409374 39.8 35.190624Q39.2375 33.971874 39.2375 32.378124Q39.2375 30.815624 39.753124 29.55Q40.26875 28.284374 41.3 27.6125Q42.346874 26.940624 43.6125 26.940624Q44.55 26.940624 45.284374 27.346874Q46.01875 27.7375 46.4875 28.3625L46.4875 23.2375L48.221874 23.2375L48.221874 37.55L46.596874 37.55ZM41.034374 32.378124Q41.034374 34.3625 41.878124 35.346874Q42.721874 36.33125 43.8625 36.33125Q45.01875 36.33125 45.815624 35.39375Q46.628124 34.45625 46.628124 32.51875Q46.628124 30.39375 45.8 29.39375Q44.9875 28.39375 43.784374 28.39375Q42.6125 28.39375 41.815624 29.3625Q41.034374 30.315624 41.034374 32.378124ZM60.70625 35.971874L60.95625 37.534374Q60.221874 37.690624 59.628124 37.690624Q58.675 37.690624 58.14375 37.39375Q57.628124 37.08125 57.409374 36.596874Q57.190624 36.096874 57.190624 34.51875L57.190624 28.55L55.909374 28.55L55.909374 27.175L57.190624 27.175L57.190624 24.6125L58.940624 23.55L58.940624 27.175L60.70625 27.175L60.70625 28.55L58.940624 28.55L58.940624 34.6125Q58.940624 35.3625 59.034374 35.58125Q59.128124 35.784374 59.33125 35.925Q59.55 36.05 59.940624 36.05Q60.221874 36.05 60.70625 35.971874ZM62.221874 32.3625Q62.221874 29.4875 63.815624 28.096874Q65.15938 26.940624 67.08125 26.940624Q69.22188 26.940624 70.56563 28.346874Q71.925 29.753124 71.925 32.221874Q71.925 34.221874 71.33125 35.378124Q70.7375 36.51875 69.58125 37.159374Q68.44063 37.784374 67.08125 37.784374Q64.89375 37.784374 63.55 36.39375Q62.221874 34.9875 62.221874 32.3625ZM64.01875 32.3625Q64.01875 34.3625 64.87813 35.346874Q65.75313 36.33125 67.08125 36.33125Q68.39375 36.33125 69.25313 35.346874Q70.12813 34.346874 70.12813 32.3Q70.12813 30.378124 69.25313 29.39375Q68.37813 28.39375 67.08125 28.39375Q65.75313 28.39375 64.87813 29.39375Q64.01875 30.378124 64.01875 32.3625ZM73.87813 37.55L73.87813 23.2375L75.64375 23.2375L75.64375 31.39375L79.8 27.175L82.06563 27.175L78.1125 31.01875L82.47188 37.55L80.3 37.55L76.87813 32.253124L75.64375 33.440624L75.64375 37.55L73.87813 37.55ZM90.97188 34.20625L92.78438 34.440624Q92.3625 36.01875 91.19063 36.909374Q90.03438 37.784374 88.22188 37.784374Q85.95625 37.784374 84.6125 36.39375Q83.28438 34.9875 83.28438 32.45625Q83.28438 29.83125 84.62813 28.39375Q85.97188 26.940624 88.12813 26.940624Q90.20625 26.940624 91.51875 28.3625Q92.84688 29.76875 92.84688 32.346874Q92.84688 32.503124 92.83125 32.815624L85.09688 32.815624Q85.19063 34.51875 86.06563 35.425Q86.94063 36.33125 88.2375 36.33125Q89.20625 36.33125 89.87813 35.83125Q90.56563 35.315624 90.97188 34.20625ZM85.19063 31.3625L90.9875 31.3625Q90.87813 30.065624 90.33125 29.409374Q89.4875 28.39375 88.14375 28.39375Q86.94063 28.39375 86.1125 29.20625Q85.28438 30.003124 85.19063 31.3625ZM94.8625 37.55L94.8625 27.175L96.45625 27.175L96.45625 28.659374Q97.59688 26.940624 99.75313 26.940624Q100.69063 26.940624 101.47188 27.284374Q102.26875 27.6125 102.65938 28.159374Q103.05 28.70625 103.20625 29.45625Q103.3 29.95625 103.3 31.175L103.3 37.55L101.53438 37.55L101.53438 31.2375Q101.53438 30.159374 101.33125 29.628124Q101.12813 29.096874 100.59688 28.784374Q100.08125 28.471874 99.37813 28.471874Q98.25313 28.471874 97.44063 29.190624Q96.62813 29.89375 96.62813 31.878124L96.62813 37.55L94.8625 37.55ZM104.22188 32.3625Q104.22188 29.4875 105.81563 28.096874Q107.15938 26.940624 109.08125 26.940624Q111.22188 26.940624 112.56563 28.346874Q113.925 29.753124 113.925 32.221874Q113.925 34.221874 113.33125 35.378124Q112.7375 36.51875 111.58125 37.159374Q110.44063 37.784374 109.08125 37.784374Q106.89375 37.784374 105.55 36.39375Q104.22188 34.9875 104.22188 32.3625ZM106.01875 32.3625Q106.01875 34.3625 106.87813 35.346874Q107.75313 36.33125 109.08125 36.33125Q110.39375 36.33125 111.25313 35.346874Q112.12813 34.346874 112.12813 32.3Q112.12813 30.378124 111.25313 29.39375Q110.37813 28.39375 109.08125 28.39375Q107.75313 28.39375 106.87813 29.39375Q106.01875 30.378124 106.01875 32.3625ZM115.8625 37.55L115.8625 27.175L117.44063 27.175L117.44063 28.628124Q117.925 27.878124 118.7375 27.409374Q119.55 26.940624 120.58125 26.940624Q121.7375 26.940624 122.47188 27.425Q123.20625 27.89375 123.51875 28.753124Q124.75313 26.940624 126.72188 26.940624Q128.26875 26.940624 129.09688 27.8Q129.925 28.659374 129.925 30.425L129.925 37.55L128.175 37.55L128.175 31.01875Q128.175 29.95625 128.00313 29.503124Q127.83125 29.034374 127.37813 28.753124Q126.94063 28.471874 126.33125 28.471874Q125.2375 28.471874 124.50313 29.20625Q123.78438 29.925 123.78438 31.51875L123.78438 37.55L122.03438 37.55L122.03438 30.815624Q122.03438 29.64375 121.59688 29.065624Q121.175 28.471874 120.19063 28.471874Q119.45625 28.471874 118.81563 28.8625Q118.19063 29.253124 117.90938 30.003124Q117.62813 30.753124 117.62813 32.175L117.62813 37.55L115.8625 37.55ZM131.87813 25.253124L131.87813 23.2375L133.64375 23.2375L133.64375 25.253124L131.87813 25.253124ZM131.87813 37.55L131.87813 27.175L133.64375 27.175L133.64375 37.55L131.87813 37.55ZM142.64375 33.753124L144.3625 33.971874Q144.08125 35.76875 142.90938 36.784374Q141.75313 37.784374 140.05 37.784374Q137.925 37.784374 136.62813 36.39375Q135.33125 35.003124 135.33125 32.409374Q135.33125 30.721874 135.87813 29.471874Q136.44063 28.20625 137.58125 27.58125Q138.72188 26.940624 140.06563 26.940624Q141.75313 26.940624 142.81563 27.8Q143.89375 28.659374 144.20625 30.221874L142.4875 30.4875Q142.25313 29.440624 141.62813 28.925Q141.00313 28.39375 140.12813 28.39375Q138.8 28.39375 137.97188 29.346874Q137.14375 30.3 137.14375 32.346874Q137.14375 34.440624 137.94063 35.39375Q138.7375 36.33125 140.03438 36.33125Q141.06563 36.33125 141.75313 35.70625Q142.45625 35.065624 142.64375 33.753124ZM145.15938 34.45625L146.90938 34.175Q147.05 35.221874 147.72188 35.784374Q148.39375 36.33125 149.59688 36.33125Q150.8 36.33125 151.37813 35.846874Q151.97188 35.346874 151.97188 34.690624Q151.97188 34.096874 151.45625 33.753124Q151.09688 33.51875 149.65938 33.159374Q147.72188 32.659374 146.97188 32.315624Q146.2375 31.95625 145.84688 31.33125Q145.45625 30.690624 145.45625 29.925Q145.45625 29.2375 145.76875 28.64375Q146.09688 28.05 146.64375 27.659374Q147.05 27.3625 147.75313 27.159374Q148.47188 26.940624 149.28438 26.940624Q150.50313 26.940624 151.425 27.3Q152.34688 27.64375 152.78438 28.253124Q153.22188 28.846874 153.39375 29.846874L151.675 30.08125Q151.55 29.284374 150.9875 28.846874Q150.425 28.39375 149.40938 28.39375Q148.19063 28.39375 147.675 28.8Q147.15938 29.190624 147.15938 29.721874Q147.15938 30.065624 147.37813 30.346874Q147.58125 30.628124 148.05 30.815624Q148.31563 30.909374 149.59688 31.253124Q151.47188 31.753124 152.20625 32.08125Q152.94063 32.39375 153.3625 33.003124Q153.78438 33.596874 153.78438 34.503124Q153.78438 35.378124 153.26875 36.159374Q152.75313 36.940624 151.78438 37.3625Q150.81563 37.784374 149.59688 37.784374Q147.58125 37.784374 146.51875 36.940624Q145.45625 36.096874 145.15938 34.45625Z" fill-rule="nonzero"/></svg>